<svg xmlns="http://www.w3.org/2000/svg" viewBox="0 0 512 512" id="distance"><g><circle cx="99.23" cy="330.75" r="34.573"></circle><path d="M93.452,460.033a8,8,0,0,0,11.557,0l57.5-60.054c34.519-35.914,34.532-94.621.027-130.868a86.815,86.815,0,0,0-126.578-.028C1.435,305,1.423,363.705,35.944,399.968ZM99.23,280.177A50.573,50.573,0,1,1,48.658,330.75,50.63,50.63,0,0,1,99.23,280.177Z"></path><circle cx="412.77" cy="99.543" r="34.573"></circle><path d="M412.77,10.5a86.726,86.726,0,0,0-63.276,27.376c-34.52,35.915-34.532,94.622-.011,130.886l57.508,60.064a8,8,0,0,0,11.557,0l57.5-60.053c34.519-35.914,34.532-94.621.027-130.868A86.745,86.745,0,0,0,412.77,10.5Zm0,139.616a50.573,50.573,0,1,1,50.572-50.573A50.63,50.63,0,0,1,412.77,150.116Z"></path><path d="M98,484a18.021,18.021,0,0,0,18,18h76c54.038,0,98-44.462,98-98.5v-73c0-34.187,27.813-61.5,62-61.5h41a18,18,0,0,0,0-36H352c-54.038,0-98,43.462-98,97.5v73c0,34.187-27.813,62.5-62,62.5H116A18.021,18.021,0,0,0,98,484Z"></path></g></svg>